<svg id="visual" viewBox="0 0 900 600" width="900" height="600" xmlns="http://www.w3.org/2000/svg" xmlns:xlink="http://www.w3.org/1999/xlink" version="1.1"><rect x="0" y="0" width="900" height="600" fill="#001220"></rect><defs><linearGradient id="grad1_0" x1="33.3%" y1="0%" x2="100%" y2="100%"><stop offset="20%" stop-color="#001220" stop-opacity="1"></stop><stop offset="80%" stop-color="#001220" stop-opacity="1"></stop></linearGradient></defs><defs><linearGradient id="grad2_0" x1="0%" y1="0%" x2="66.7%" y2="100%"><stop offset="20%" stop-color="#001220" stop-opacity="1"></stop><stop offset="80%" stop-color="#001220" stop-opacity="1"></stop></linearGradient></defs><g transform="translate(900, 0)"><path d="M0 486.7C-47.1 442.7 -94.3 398.7 -158.4 382.5C-222.6 366.3 -303.8 378 -344.2 344.2C-384.5 310.4 -384 231 -401 166.1C-417.9 101.1 -452.3 50.6 -486.7 0L0 0Z" fill="#FBAE3C"></path></g><g transform="translate(0, 600)"><path d="M0 -486.7C47.4 -445.7 94.9 -404.7 161.1 -389C227.3 -373.2 312.4 -382.9 344.2 -344.2C376 -305.5 354.7 -218.5 369.6 -153.1C384.4 -87.7 435.6 -43.8 486.7 0L0 0Z" fill="#FBAE3C"></path></g></svg>